<mxfile host="app.diagrams.net" modified="2023-03-12T02:07:24.404Z" agent="5.0 (Windows NT 10.0; Win64; x64) AppleWebKit/537.36 (KHTML, like Gecko) Chrome/110.0.0.0 Safari/537.36" etag="RuOfKKIS8if4XIPpy-wh" version="21.0.6" type="github">
  <diagram name="Page-1" id="WcxMwrETYA4HYHYljI-f">
    <mxGraphModel dx="4622" dy="2744" grid="1" gridSize="10" guides="1" tooltips="1" connect="1" arrows="1" fold="1" page="1" pageScale="1" pageWidth="850" pageHeight="1100" math="0" shadow="0">
      <root>
        <mxCell id="0" />
        <mxCell id="1" parent="0" />
        <mxCell id="GIFDyBif_Qzl57ghV8JT-1" value="Region" style="points=[[0,0],[0.25,0],[0.5,0],[0.75,0],[1,0],[1,0.25],[1,0.5],[1,0.75],[1,1],[0.75,1],[0.5,1],[0.25,1],[0,1],[0,0.75],[0,0.5],[0,0.25]];outlineConnect=0;gradientColor=none;html=1;whiteSpace=wrap;fontSize=12;fontStyle=0;container=1;pointerEvents=0;collapsible=0;recursiveResize=0;shape=mxgraph.aws4.group;grIcon=mxgraph.aws4.group_region;strokeColor=#147EBA;fillColor=none;verticalAlign=top;align=left;spacingLeft=30;fontColor=#147EBA;dashed=1;" parent="1" vertex="1">
          <mxGeometry x="-240" y="-40" width="1480" height="850" as="geometry" />
        </mxCell>
        <mxCell id="GIFDyBif_Qzl57ghV8JT-2" value="VPC" style="points=[[0,0],[0.25,0],[0.5,0],[0.75,0],[1,0],[1,0.25],[1,0.5],[1,0.75],[1,1],[0.75,1],[0.5,1],[0.25,1],[0,1],[0,0.75],[0,0.5],[0,0.25]];outlineConnect=0;gradientColor=none;html=1;whiteSpace=wrap;fontSize=12;fontStyle=0;container=1;pointerEvents=0;collapsible=0;recursiveResize=0;shape=mxgraph.aws4.group;grIcon=mxgraph.aws4.group_vpc;strokeColor=#248814;fillColor=none;verticalAlign=top;align=left;spacingLeft=30;fontColor=#AAB7B8;dashed=0;" parent="1" vertex="1">
          <mxGeometry x="-200" width="1400" height="780" as="geometry" />
        </mxCell>
        <mxCell id="GIFDyBif_Qzl57ghV8JT-3" value="" style="sketch=0;outlineConnect=0;fontColor=#232F3E;gradientColor=none;fillColor=#4D27AA;strokeColor=none;dashed=0;verticalLabelPosition=bottom;verticalAlign=top;align=center;html=1;fontSize=12;fontStyle=0;aspect=fixed;pointerEvents=1;shape=mxgraph.aws4.route_53_resolver_dns_firewall;" parent="GIFDyBif_Qzl57ghV8JT-2" vertex="1">
          <mxGeometry x="692.82" y="10" width="40" height="40" as="geometry" />
        </mxCell>
        <mxCell id="GIFDyBif_Qzl57ghV8JT-6" value="EC2 instance contents" style="points=[[0,0],[0.25,0],[0.5,0],[0.75,0],[1,0],[1,0.25],[1,0.5],[1,0.75],[1,1],[0.75,1],[0.5,1],[0.25,1],[0,1],[0,0.75],[0,0.5],[0,0.25]];outlineConnect=0;gradientColor=none;html=1;whiteSpace=wrap;fontSize=12;fontStyle=0;container=1;pointerEvents=0;collapsible=0;recursiveResize=0;shape=mxgraph.aws4.group;grIcon=mxgraph.aws4.group_ec2_instance_contents;strokeColor=#D86613;fillColor=none;verticalAlign=top;align=left;spacingLeft=30;fontColor=#D86613;dashed=0;" parent="GIFDyBif_Qzl57ghV8JT-2" vertex="1">
          <mxGeometry x="445.65" y="528.12" width="124.35" height="71.88" as="geometry" />
        </mxCell>
        <mxCell id="GIFDyBif_Qzl57ghV8JT-7" value="EC2 instance contents" style="points=[[0,0],[0.25,0],[0.5,0],[0.75,0],[1,0],[1,0.25],[1,0.5],[1,0.75],[1,1],[0.75,1],[0.5,1],[0.25,1],[0,1],[0,0.75],[0,0.5],[0,0.25]];outlineConnect=0;gradientColor=none;html=1;whiteSpace=wrap;fontSize=12;fontStyle=0;container=1;pointerEvents=0;collapsible=0;recursiveResize=0;shape=mxgraph.aws4.group;grIcon=mxgraph.aws4.group_ec2_instance_contents;strokeColor=#D86613;fillColor=none;verticalAlign=top;align=left;spacingLeft=30;fontColor=#D86613;dashed=0;" parent="GIFDyBif_Qzl57ghV8JT-2" vertex="1">
          <mxGeometry x="840" y="528.12" width="125.65" height="71.88" as="geometry" />
        </mxCell>
        <mxCell id="GIFDyBif_Qzl57ghV8JT-8" value="" style="verticalLabelPosition=bottom;html=1;verticalAlign=top;strokeWidth=1;align=center;outlineConnect=0;dashed=0;outlineConnect=0;shape=mxgraph.aws3d.elasticLoadBalancing;fillColor=#ECECEC;strokeColor=#5E5E5E;aspect=fixed;" parent="GIFDyBif_Qzl57ghV8JT-2" vertex="1">
          <mxGeometry x="694.82" y="120" width="31.3" height="30" as="geometry" />
        </mxCell>
        <mxCell id="GIFDyBif_Qzl57ghV8JT-16" value="" style="verticalLabelPosition=bottom;html=1;verticalAlign=top;strokeWidth=1;align=center;outlineConnect=0;dashed=0;outlineConnect=0;shape=mxgraph.aws3d.elasticLoadBalancing;fillColor=#ECECEC;strokeColor=#5E5E5E;aspect=fixed;" parent="GIFDyBif_Qzl57ghV8JT-2" vertex="1">
          <mxGeometry x="684.55" y="390" width="50.26" height="48.17" as="geometry" />
        </mxCell>
        <mxCell id="GIFDyBif_Qzl57ghV8JT-18" value="Auto Scaling group" style="points=[[0,0],[0.25,0],[0.5,0],[0.75,0],[1,0],[1,0.25],[1,0.5],[1,0.75],[1,1],[0.75,1],[0.5,1],[0.25,1],[0,1],[0,0.75],[0,0.5],[0,0.25]];outlineConnect=0;gradientColor=none;html=1;whiteSpace=wrap;fontSize=12;fontStyle=0;container=1;pointerEvents=0;collapsible=0;recursiveResize=0;shape=mxgraph.aws4.groupCenter;grIcon=mxgraph.aws4.group_auto_scaling_group;grStroke=1;strokeColor=#D86613;fillColor=none;verticalAlign=top;align=center;fontColor=#D86613;dashed=1;spacingTop=25;" parent="GIFDyBif_Qzl57ghV8JT-2" vertex="1">
          <mxGeometry x="386.15" y="220" width="633.85" height="110" as="geometry" />
        </mxCell>
        <mxCell id="GIFDyBif_Qzl57ghV8JT-5" value="EC2 instance contents" style="points=[[0,0],[0.25,0],[0.5,0],[0.75,0],[1,0],[1,0.25],[1,0.5],[1,0.75],[1,1],[0.75,1],[0.5,1],[0.25,1],[0,1],[0,0.75],[0,0.5],[0,0.25]];outlineConnect=0;gradientColor=none;html=1;whiteSpace=wrap;fontSize=12;fontStyle=0;container=1;pointerEvents=0;collapsible=0;recursiveResize=0;shape=mxgraph.aws4.group;grIcon=mxgraph.aws4.group_ec2_instance_contents;strokeColor=#D86613;fillColor=none;verticalAlign=top;align=left;spacingLeft=30;fontColor=#D86613;dashed=0;" parent="GIFDyBif_Qzl57ghV8JT-18" vertex="1">
          <mxGeometry x="50" y="10" width="130" height="80" as="geometry" />
        </mxCell>
        <mxCell id="GIFDyBif_Qzl57ghV8JT-4" value="EC2 instance contents" style="points=[[0,0],[0.25,0],[0.5,0],[0.75,0],[1,0],[1,0.25],[1,0.5],[1,0.75],[1,1],[0.75,1],[0.5,1],[0.25,1],[0,1],[0,0.75],[0,0.5],[0,0.25]];outlineConnect=0;gradientColor=none;html=1;whiteSpace=wrap;fontSize=12;fontStyle=0;container=1;pointerEvents=0;collapsible=0;recursiveResize=0;shape=mxgraph.aws4.group;grIcon=mxgraph.aws4.group_ec2_instance_contents;strokeColor=#D86613;fillColor=none;verticalAlign=top;align=left;spacingLeft=30;fontColor=#D86613;dashed=0;" parent="GIFDyBif_Qzl57ghV8JT-18" vertex="1">
          <mxGeometry x="450" y="10" width="120" height="80" as="geometry" />
        </mxCell>
        <mxCell id="GIFDyBif_Qzl57ghV8JT-19" value="Auto Scaling group" style="points=[[0,0],[0.25,0],[0.5,0],[0.75,0],[1,0],[1,0.25],[1,0.5],[1,0.75],[1,1],[0.75,1],[0.5,1],[0.25,1],[0,1],[0,0.75],[0,0.5],[0,0.25]];outlineConnect=0;gradientColor=none;html=1;whiteSpace=wrap;fontSize=12;fontStyle=0;container=1;pointerEvents=0;collapsible=0;recursiveResize=0;shape=mxgraph.aws4.groupCenter;grIcon=mxgraph.aws4.group_auto_scaling_group;grStroke=1;strokeColor=#D86613;fillColor=none;verticalAlign=top;align=center;fontColor=#D86613;dashed=1;spacingTop=25;" parent="GIFDyBif_Qzl57ghV8JT-2" vertex="1">
          <mxGeometry x="385.65" y="496.87" width="654.35" height="133.13" as="geometry" />
        </mxCell>
        <mxCell id="GIFDyBif_Qzl57ghV8JT-22" value="Availability Zone" style="fillColor=none;strokeColor=#147EBA;dashed=1;verticalAlign=top;fontStyle=0;fontColor=#147EBA;whiteSpace=wrap;html=1;" parent="GIFDyBif_Qzl57ghV8JT-19" vertex="1">
          <mxGeometry x="50.5" y="-26.870000000000005" width="150" height="190" as="geometry" />
        </mxCell>
        <mxCell id="GIFDyBif_Qzl57ghV8JT-20" value="Availability Zone" style="fillColor=none;strokeColor=#147EBA;dashed=1;verticalAlign=top;fontStyle=0;fontColor=#147EBA;whiteSpace=wrap;html=1;" parent="GIFDyBif_Qzl57ghV8JT-2" vertex="1">
          <mxGeometry x="422.58" y="182.26" width="160" height="190" as="geometry" />
        </mxCell>
        <mxCell id="GIFDyBif_Qzl57ghV8JT-21" value="Availability Zone" style="fillColor=none;strokeColor=#147EBA;dashed=1;verticalAlign=top;fontStyle=0;fontColor=#147EBA;whiteSpace=wrap;html=1;" parent="GIFDyBif_Qzl57ghV8JT-2" vertex="1">
          <mxGeometry x="820" y="180" width="150" height="190" as="geometry" />
        </mxCell>
        <mxCell id="GIFDyBif_Qzl57ghV8JT-24" value="" style="sketch=0;points=[[0,0,0],[0.25,0,0],[0.5,0,0],[0.75,0,0],[1,0,0],[0,1,0],[0.25,1,0],[0.5,1,0],[0.75,1,0],[1,1,0],[0,0.25,0],[0,0.5,0],[0,0.75,0],[1,0.25,0],[1,0.5,0],[1,0.75,0]];outlineConnect=0;fontColor=#232F3E;gradientColor=#4D72F3;gradientDirection=north;fillColor=#3334B9;strokeColor=#ffffff;dashed=0;verticalLabelPosition=bottom;verticalAlign=top;align=center;html=1;fontSize=12;fontStyle=0;aspect=fixed;shape=mxgraph.aws4.resourceIcon;resIcon=mxgraph.aws4.aurora;" parent="GIFDyBif_Qzl57ghV8JT-2" vertex="1">
          <mxGeometry x="686.25" y="700" width="67.5" height="67.5" as="geometry" />
        </mxCell>
        <mxCell id="GIFDyBif_Qzl57ghV8JT-27" value="" style="shape=singleArrow;whiteSpace=wrap;html=1;arrowWidth=0.3251301467108325;arrowSize=0.39128205128205396;verticalAlign=top;fillColor=#ECECEC;strokeColor=#5E5E5E;strokeWidth=1;dashed=0;rotation=90;" parent="GIFDyBif_Qzl57ghV8JT-2" vertex="1">
          <mxGeometry x="690.1800000000001" y="160" width="39" height="42.26" as="geometry" />
        </mxCell>
        <mxCell id="GIFDyBif_Qzl57ghV8JT-31" value="" style="shape=singleArrow;whiteSpace=wrap;html=1;arrowWidth=0.3251301467108325;arrowSize=0.39128205128205396;verticalAlign=top;fillColor=#ECECEC;strokeColor=#5E5E5E;strokeWidth=1;dashed=0;rotation=90;" parent="GIFDyBif_Qzl57ghV8JT-2" vertex="1">
          <mxGeometry x="701.9399999999999" y="650" width="32.87" height="32.26" as="geometry" />
        </mxCell>
        <mxCell id="GIFDyBif_Qzl57ghV8JT-32" value="" style="shape=singleArrow;whiteSpace=wrap;html=1;arrowWidth=0.3251301467108325;arrowSize=0.39128205128205396;verticalAlign=top;fillColor=#ECECEC;strokeColor=#5E5E5E;strokeWidth=1;dashed=0;rotation=90;" parent="GIFDyBif_Qzl57ghV8JT-2" vertex="1">
          <mxGeometry x="693.25" y="450" width="29" height="30" as="geometry" />
        </mxCell>
        <mxCell id="GIFDyBif_Qzl57ghV8JT-23" value="Availability Zone" style="fillColor=none;strokeColor=#147EBA;dashed=1;verticalAlign=top;fontStyle=0;fontColor=#147EBA;whiteSpace=wrap;html=1;" parent="GIFDyBif_Qzl57ghV8JT-2" vertex="1">
          <mxGeometry x="827.83" y="469.06" width="150" height="190" as="geometry" />
        </mxCell>
        <mxCell id="GIFDyBif_Qzl57ghV8JT-34" value="" style="shape=singleArrow;whiteSpace=wrap;html=1;arrowWidth=0.3251301467108325;arrowSize=0.39128205128205396;verticalAlign=top;fillColor=#ECECEC;strokeColor=#5E5E5E;strokeWidth=1;dashed=0;rotation=90;" parent="GIFDyBif_Qzl57ghV8JT-2" vertex="1">
          <mxGeometry x="694.8199999999999" y="70" width="32.87" height="32.26" as="geometry" />
        </mxCell>
        <mxCell id="GIFDyBif_Qzl57ghV8JT-35" value="" style="shape=singleArrow;whiteSpace=wrap;html=1;arrowWidth=0.3251301467108325;arrowSize=0.39128205128205396;verticalAlign=top;fillColor=#ECECEC;strokeColor=#5E5E5E;strokeWidth=1;dashed=0;rotation=90;" parent="GIFDyBif_Qzl57ghV8JT-2" vertex="1">
          <mxGeometry x="693.2499999999999" y="340" width="32.87" height="32.26" as="geometry" />
        </mxCell>
      </root>
    </mxGraphModel>
  </diagram>
</mxfile>
